<svg width="48" height="48" xmlns="http://www.w3.org/2000/svg">
  <g>
    <path fill="currentColor" d="m44.929,14.391c-0.046,0.099 -0.102,0.194 -0.183,0.276l-27.906,27.905c-0.109,0.188 -0.26,0.352 -0.475,0.434l-13.852,3.88c-0.029,0.014 -0.062,0.016 -0.094,0.026l-0.047,0.014c-0.008,0.003 -0.017,0.001 -0.024,0.004c-0.094,0.025 -0.187,0.046 -0.286,0.045c-0.098,0.003 -0.189,-0.015 -0.282,-0.041c-0.021,-0.006 -0.04,-0.002 -0.061,-0.009c-0.008,-0.003 -0.013,-0.01 -0.021,-0.013c-0.088,-0.033 -0.164,-0.083 -0.24,-0.141c-0.039,-0.028 -0.08,-0.053 -0.113,-0.086s-0.058,-0.074 -0.086,-0.113c-0.058,-0.075 -0.107,-0.152 -0.141,-0.24c-0.004,-0.008 -0.01,-0.013 -0.013,-0.021c-0.007,-0.02 -0.003,-0.04 -0.009,-0.061c-0.025,-0.092 -0.043,-0.184 -0.041,-0.281c0,-0.1 0.02,-0.193 0.045,-0.287c0.004,-0.008 0.001,-0.016 0.004,-0.023l0.014,-0.049c0.011,-0.03 0.013,-0.063 0.026,-0.093l3.88,-13.852c0.082,-0.216 0.246,-0.364 0.434,-0.475l27.479,-27.48c0.04,-0.045 0.087,-0.083 0.128,-0.127l0.299,-0.299c0.015,-0.015 0.034,-0.02 0.05,-0.034c1.444,-1.38 3.382,-2.25 5.539,-2.25c4.444,0 8.047,3.603 8.047,8.047c0,2.061 -0.795,3.922 -2.071,5.344zm-3.779,1.109l-3.619,-3.619l-23.64,23.641c0.004,0.008 0.014,0.011 0.018,0.019l2.373,4.827l24.868,-24.868zm-37.591,28.973l2.785,-0.779l-2.006,-2.005l-0.779,2.784zm1.384,-4.943l3.558,3.559l6.12,-1.715c0,0 -2.586,-5.372 -2.59,-5.374l-5.374,-2.59l-1.714,6.12zm7.547,-5.406c0.008,0.004 0.011,0.013 0.019,0.018l23.641,-23.642l-3.619,-3.619l-24.868,24.868l4.827,2.375zm26.432,-31.124c-1.782,0 -3.372,0.776 -4.489,1.994l-0.007,-0.007l-0.514,0.513l8.619,8.619l0.527,-0.528l-0.006,-0.006c1.209,-1.116 1.979,-2.701 1.979,-4.476c0,-3.374 -2.735,-6.109 -6.109,-6.109z"/>
  </g>
</svg>
