<svg xmlns="http://www.w3.org/2000/svg" viewBox="0 0 40 40" width="40" height="40">
  <g fill="currentColor">
    <path d=" M 23.2 29.3 L 5.6 29.3 C 4.7 29.3 4 30 4 30.9 C 4 31.8 4.7 32.5 5.6 32.5 L 23.2 32.5 C 23.8 33.6 25 34.4 26.4 34.4 C 27.8 34.4 29 33.6 29.6 32.5 L 34.4 32.5 C 35.3 32.5 36 31.8 36 30.9 C 36 30 35.3 29.3 34.4 29.3 L 29.6 29.3 C 29 28.2 27.8 27.4 26.4 27.4 C 25 27.4 23.8 28.2 23.2 29.3 Z "/>
    <path d=" M 26.4 5.6 C 25 5.6 23.8 6.4 23.2 7.5 L 5.6 7.5 C 4.7 7.6 4 8.3 4 9.1 C 4 10 4.7 10.7 5.6 10.7 L 23.2 10.7 C 23.8 11.8 25 12.6 26.4 12.6 C 27.8 12.6 29 11.8 29.6 10.7 L 34.4 10.7 C 35.3 10.7 36 10 36 9.1 C 36 8.2 35.3 7.5 34.4 7.5 L 29.6 7.5 C 29 6.4 27.8 5.6 26.4 5.6 Z "/>
    <path d=" M 8.8 18.5 L 5.6 18.5 C 4.7 18.5 4 19.2 4 20.1 C 4 21 4.7 21.7 5.6 21.7 L 8.8 21.7 C 9.4 22.8 10.6 23.6 12 23.6 C 13.4 23.6 14.6 22.8 15.2 21.7 L 34.4 21.7 C 35.3 21.7 36 21 36 20.1 C 36 19.2 35.3 18.5 34.4 18.5 L 15.2 18.5 C 14.6 17.4 13.4 16.6 12 16.6 C 10.6 16.6 9.4 17.3 8.8 18.5 Z "/>
  </g>
</svg>
