<?xml version="1.0" encoding="utf-8"?>
<!-- Generator: Adobe Illustrator 20.1.0, SVG Export Plug-In . SVG Version: 6.00 Build 0)  -->
<svg version="1.1" id="Layer_1" xmlns="http://www.w3.org/2000/svg" xmlns:xlink="http://www.w3.org/1999/xlink" x="0px" y="0px"
	 viewBox="0 0 41 26" style="enable-background:new 0 0 41 26;" xml:space="preserve">
<style type="text/css">
	.st0{fill:currentColor;}
</style>
<g id="Urgent-Request">
	<path id="Shape" class="st0" d="M35.2,5.1c-1.6-1.4-3.9-2-6.2-1.9c-2.4,0.2-4.7,1.1-6.6,2.8c-1.9,1.6-3.3,3.8-3.9,6.1
		c-0.6,2.3-0.3,4.6,0.7,6.4c0.1,0.2,0.3,0.3,0.6,0.3c0.1,0,0.2,0,0.3-0.1c0.3-0.2,0.4-0.6,0.3-0.9c-0.9-1.6-1.1-3.5-0.6-5.5
		c0.5-2,1.7-3.9,3.5-5.4c1.7-1.4,3.8-2.3,5.9-2.5c2-0.1,3.9,0.4,5.3,1.6c0.3,0.2,0.7,0.2,0.9-0.1C35.5,5.7,35.5,5.3,35.2,5.1z"/>
	<path id="Shape_1_" class="st0" d="M37,7.2c-0.2-0.3-0.6-0.4-0.9-0.3c-0.3,0.2-0.4,0.6-0.3,0.9c0.9,1.6,1.1,3.5,0.6,5.5
		c-0.5,2-1.7,3.9-3.5,5.4c-1.7,1.4-3.8,2.3-5.9,2.5c-2,0.1-3.9-0.4-5.3-1.6c-0.3-0.2-0.7-0.2-0.9,0.1c-0.2,0.3-0.2,0.7,0.1,0.9
		c1.5,1.2,3.4,1.9,5.5,1.9c0.2,0,0.5,0,0.7,0c2.4-0.2,4.7-1.1,6.6-2.8c1.9-1.6,3.3-3.8,3.9-6.1C38.3,11.4,38.1,9.1,37,7.2z"/>
	<path id="Shape_2_" class="st0" d="M38.5,4.1c-2-2.3-4.9-3.6-8.3-3.6c-3.3,0-6.7,1.3-9.5,3.6c-2.8,2.3-4.6,5.4-5.2,8.7
		c-0.6,3.4,0.2,6.5,2.2,8.9c2,2.3,4.9,3.6,8.3,3.6c3.3,0,6.7-1.3,9.5-3.6c2.8-2.3,4.6-5.4,5.2-8.7C41.3,9.6,40.5,6.4,38.5,4.1z
		 M39.4,12.8C38.3,19,32.3,24,26,24c-3,0-5.5-1.1-7.3-3.2C17,18.8,16.3,16,16.8,13c1.1-6.2,7.1-11.3,13.4-11.3c3,0,5.5,1.1,7.3,3.2
		C39.3,7,40,9.8,39.4,12.8z"/>
	<path id="Shape_3_" class="st0" d="M34.4,12.2h-4.3c-0.1-0.3-0.2-0.5-0.4-0.8c-0.2-0.2-0.4-0.4-0.7-0.5l0.8-4.2
		c0.1-0.4-0.2-0.7-0.5-0.8c-0.4-0.1-0.7,0.2-0.8,0.5l-0.8,4.4c-0.9,0.2-1.6,1-1.7,1.8c-0.1,0.6,0,1.1,0.4,1.5
		c0.3,0.4,0.9,0.6,1.4,0.6c0.9,0,1.8-0.6,2.1-1.4h4.4c0.4,0,0.7-0.3,0.7-0.6S34.8,12.2,34.4,12.2z M28.9,12.8
		c-0.1,0.5-0.6,0.9-1,0.9c-0.2,0-0.3-0.1-0.4-0.2c-0.1-0.1-0.1-0.3-0.1-0.5c0.1-0.5,0.6-0.8,1-0.9c0,0,0,0,0,0c0,0,0,0,0,0
		c0.2,0,0.3,0.1,0.4,0.2C28.9,12.4,28.9,12.6,28.9,12.8z"/>
	<path id="Shape_4_" class="st0" d="M27.2,17.8c-0.4-0.1-0.7,0.2-0.8,0.5L26.3,19c-0.1,0.4,0.2,0.7,0.5,0.8c0,0,0.1,0,0.1,0
		c0.3,0,0.6-0.2,0.6-0.5l0.1-0.7C27.8,18.2,27.6,17.8,27.2,17.8z"/>
	<path id="Shape_5_" class="st0" d="M22.5,12.2h-0.7c-0.4,0-0.7,0.3-0.7,0.6c0,0.4,0.3,0.6,0.7,0.6h0.7c0.4,0,0.7-0.3,0.7-0.6
		C23.1,12.5,22.9,12.2,22.5,12.2z"/>
	<path id="Shape_6_" class="st0" d="M3,8.1H1.6c-0.4,0-0.7,0.3-0.7,0.6c0,0.4,0.3,0.6,0.7,0.6H3c0.4,0,0.7-0.3,0.7-0.6
		C3.6,8.3,3.3,8.1,3,8.1z"/>
	<path id="Shape_7_" class="st0" d="M14.2,8.1H5.8c-0.4,0-0.7,0.3-0.7,0.6c0,0.4,0.3,0.6,0.7,0.6h8.4c0.4,0,0.7-0.3,0.7-0.6
		C14.9,8.3,14.6,8.1,14.2,8.1z"/>
	<path id="Shape_8_" class="st0" d="M3,16.4H1.6c-0.4,0-0.7,0.3-0.7,0.6s0.3,0.6,0.7,0.6H3c0.4,0,0.7-0.3,0.7-0.6S3.3,16.4,3,16.4z"
		/>
	<path id="Shape_9_" class="st0" d="M13.5,16.4H5.8c-0.4,0-0.7,0.3-0.7,0.6s0.3,0.6,0.7,0.6h7.7c0.4,0,0.7-0.3,0.7-0.6
		C14.2,16.7,13.9,16.4,13.5,16.4z"/>
	<path id="Shape_10_" class="st0" d="M17,3.9h-7c-0.4,0-0.7,0.3-0.7,0.6c0,0.4,0.3,0.6,0.7,0.6h7c0.4,0,0.7-0.3,0.7-0.6
		C17.7,4.2,17.4,3.9,17,3.9z"/>
	<path id="Shape_11_" class="st0" d="M14.6,20.3H9.7C9.3,20.3,9,20.6,9,21s0.3,0.6,0.7,0.6h4.9c0.4,0,0.7-0.3,0.7-0.6
		S14.9,20.3,14.6,20.3z"/>
	<path id="Shape-Copy" class="st0" d="M13.6,12.4H8.7C8.3,12.4,8,12.7,8,13c0,0.4,0.3,0.6,0.7,0.6h4.9c0.4,0,0.7-0.3,0.7-0.6
		C14.2,12.7,13.9,12.4,13.6,12.4z"/>
</g>
</svg>
