<svg width="0" height="0" style="position:absolute"><symbol viewBox="0 0 48 48" id="edit" xmlns="http://www.w3.org/2000/svg"><path fill="currentColor" d="M44.929 14.391a.955.955 0 01-.183.276L16.84 42.572a.95.95 0 01-.475.434l-13.852 3.88c-.029.014-.062.016-.094.026l-.047.014c-.008.003-.017.001-.024.004a1.06 1.06 0 01-.286.045.926.926 0 01-.282-.041c-.021-.006-.04-.002-.061-.009-.008-.003-.013-.01-.021-.013a.94.94 0 01-.24-.141c-.039-.028-.08-.053-.113-.086s-.058-.074-.086-.113a.952.952 0 01-.141-.24c-.004-.008-.01-.013-.013-.021-.007-.02-.003-.04-.009-.061a.985.985 0 01-.041-.281c0-.1.02-.193.045-.287.004-.008.001-.016.004-.023l.014-.049c.011-.03.013-.063.026-.093l3.88-13.852c.082-.216.246-.364.434-.475L32.937 3.71c.04-.045.087-.083.128-.127l.299-.299c.015-.015.034-.02.05-.034C34.858 1.87 36.796 1 38.953 1A8.047 8.047 0 0147 9.047c0 2.061-.795 3.922-2.071 5.344zM41.15 15.5l-3.619-3.619-23.64 23.641c.004.008.014.011.018.019l2.373 4.827L41.15 15.5zM3.559 44.473l2.785-.779-2.006-2.005-.779 2.784zm1.384-4.943l3.558 3.559 6.12-1.715s-2.586-5.372-2.59-5.374l-5.374-2.59-1.714 6.12zm7.547-5.406c.008.004.011.013.019.018L36.15 10.5l-3.619-3.619L7.663 31.749l4.827 2.375zM38.922 3c-1.782 0-3.372.776-4.489 1.994l-.007-.007-.514.513 8.619 8.619.527-.528-.006-.006c1.209-1.116 1.979-2.701 1.979-4.476A6.109 6.109 0 0038.922 3z"/></symbol><symbol viewBox="0 0 40 40" id="filter" xmlns="http://www.w3.org/2000/svg"><g fill="currentColor"><path d="M23.2 29.3H5.6c-.9 0-1.6.7-1.6 1.6 0 .9.7 1.6 1.6 1.6h17.6c.6 1.1 1.8 1.9 3.2 1.9 1.4 0 2.6-.8 3.2-1.9h4.8c.9 0 1.6-.7 1.6-1.6 0-.9-.7-1.6-1.6-1.6h-4.8c-.6-1.1-1.8-1.9-3.2-1.9-1.4 0-2.6.8-3.2 1.9zM26.4 5.6c-1.4 0-2.6.8-3.2 1.9H5.6c-.9.1-1.6.8-1.6 1.6 0 .9.7 1.6 1.6 1.6h17.6c.6 1.1 1.8 1.9 3.2 1.9 1.4 0 2.6-.8 3.2-1.9h4.8c.9 0 1.6-.7 1.6-1.6 0-.9-.7-1.6-1.6-1.6h-4.8c-.6-1.1-1.8-1.9-3.2-1.9zM8.8 18.5H5.6c-.9 0-1.6.7-1.6 1.6 0 .9.7 1.6 1.6 1.6h3.2c.6 1.1 1.8 1.9 3.2 1.9 1.4 0 2.6-.8 3.2-1.9h19.2c.9 0 1.6-.7 1.6-1.6 0-.9-.7-1.6-1.6-1.6H15.2c-.6-1.1-1.8-1.9-3.2-1.9-1.4 0-2.6.7-3.2 1.9z"/></g></symbol><symbol id="group" viewBox="0 0 41 26" xml:space="preserve" xmlns="http://www.w3.org/2000/svg"><style>.cst0{fill:currentColor}</style><g id="cUrgent-Request"><path id="cShape" class="cst0" d="M35.2 5.1c-1.6-1.4-3.9-2-6.2-1.9-2.4.2-4.7 1.1-6.6 2.8-1.9 1.6-3.3 3.8-3.9 6.1-.6 2.3-.3 4.6.7 6.4.1.2.3.3.6.3.1 0 .2 0 .3-.1.3-.2.4-.6.3-.9-.9-1.6-1.1-3.5-.6-5.5.5-2 1.7-3.9 3.5-5.4 1.7-1.4 3.8-2.3 5.9-2.5 2-.1 3.9.4 5.3 1.6.3.2.7.2.9-.1.1-.2.1-.6-.2-.8z"/><path id="cShape_1_" class="cst0" d="M37 7.2c-.2-.3-.6-.4-.9-.3-.3.2-.4.6-.3.9.9 1.6 1.1 3.5.6 5.5-.5 2-1.7 3.9-3.5 5.4-1.7 1.4-3.8 2.3-5.9 2.5-2 .1-3.9-.4-5.3-1.6-.3-.2-.7-.2-.9.1-.2.3-.2.7.1.9 1.5 1.2 3.4 1.9 5.5 1.9h.7c2.4-.2 4.7-1.1 6.6-2.8 1.9-1.6 3.3-3.8 3.9-6.1.7-2.2.5-4.5-.6-6.4z"/><path id="cShape_2_" class="cst0" d="M38.5 4.1c-2-2.3-4.9-3.6-8.3-3.6-3.3 0-6.7 1.3-9.5 3.6s-4.6 5.4-5.2 8.7c-.6 3.4.2 6.5 2.2 8.9 2 2.3 4.9 3.6 8.3 3.6 3.3 0 6.7-1.3 9.5-3.6s4.6-5.4 5.2-8.7c.6-3.4-.2-6.6-2.2-8.9zm.9 8.7C38.3 19 32.3 24 26 24c-3 0-5.5-1.1-7.3-3.2-1.7-2-2.4-4.8-1.9-7.8 1.1-6.2 7.1-11.3 13.4-11.3 3 0 5.5 1.1 7.3 3.2 1.8 2.1 2.5 4.9 1.9 7.9z"/><path id="cShape_3_" class="cst0" d="M34.4 12.2h-4.3c-.1-.3-.2-.5-.4-.8-.2-.2-.4-.4-.7-.5l.8-4.2c.1-.4-.2-.7-.5-.8-.4-.1-.7.2-.8.5l-.8 4.4c-.9.2-1.6 1-1.7 1.8-.1.6 0 1.1.4 1.5.3.4.9.6 1.4.6.9 0 1.8-.6 2.1-1.4h4.4c.4 0 .7-.3.7-.6s-.2-.5-.6-.5zm-5.5.6c-.1.5-.6.9-1 .9-.2 0-.3-.1-.4-.2-.1-.1-.1-.3-.1-.5.1-.5.6-.8 1-.9.2 0 .3.1.4.2.1.1.1.3.1.5z"/><path id="cShape_4_" class="cst0" d="M27.2 17.8c-.4-.1-.7.2-.8.5l-.1.7c-.1.4.2.7.5.8h.1c.3 0 .6-.2.6-.5l.1-.7c.2-.4 0-.8-.4-.8z"/><path id="cShape_5_" class="cst0" d="M22.5 12.2h-.7c-.4 0-.7.3-.7.6 0 .4.3.6.7.6h.7c.4 0 .7-.3.7-.6-.1-.3-.3-.6-.7-.6z"/><path id="cShape_6_" class="cst0" d="M3 8.1H1.6c-.4 0-.7.3-.7.6 0 .4.3.6.7.6H3c.4 0 .7-.3.7-.6-.1-.4-.4-.6-.7-.6z"/><path id="cShape_7_" class="cst0" d="M14.2 8.1H5.8c-.4 0-.7.3-.7.6 0 .4.3.6.7.6h8.4c.4 0 .7-.3.7-.6 0-.4-.3-.6-.7-.6z"/><path id="cShape_8_" class="cst0" d="M3 16.4H1.6c-.4 0-.7.3-.7.6s.3.6.7.6H3c.4 0 .7-.3.7-.6s-.4-.6-.7-.6z"/><path id="cShape_9_" class="cst0" d="M13.5 16.4H5.8c-.4 0-.7.3-.7.6s.3.6.7.6h7.7c.4 0 .7-.3.7-.6s-.3-.6-.7-.6z"/><path id="cShape_10_" class="cst0" d="M17 3.9h-7c-.4 0-.7.3-.7.6 0 .4.3.6.7.6h7c.4 0 .7-.3.7-.6s-.3-.6-.7-.6z"/><path id="cShape_11_" class="cst0" d="M14.6 20.3H9.7c-.4 0-.7.3-.7.7s.3.6.7.6h4.9c.4 0 .7-.3.7-.6s-.4-.7-.7-.7z"/><path id="cShape-Copy" class="cst0" d="M13.6 12.4H8.7c-.4 0-.7.3-.7.6 0 .4.3.6.7.6h4.9c.4 0 .7-.3.7-.6-.1-.3-.4-.6-.7-.6z"/></g></symbol><symbol viewBox="0 0 14 20" id="location" xmlns="http://www.w3.org/2000/svg"><path fill="currentColor" d="M7 0C3.14 0 0 3.222 0 7.183c0 4.915 6.264 12.131 6.531 12.436a.62.62 0 00.938 0C7.736 19.314 14 12.099 14 7.183 14 3.223 10.86 0 7 0zm0 10.797c-1.942 0-3.522-1.621-3.522-3.614 0-1.993 1.58-3.614 3.522-3.614 1.942 0 3.522 1.621 3.522 3.614 0 1.993-1.58 3.614-3.522 3.614z"/></symbol></svg>